<?xml version="1.0" encoding="UTF-8"?>
<svg id="Capa_1" data-name="Capa 1" xmlns="http://www.w3.org/2000/svg" xmlns:xlink="http://www.w3.org/1999/xlink" viewBox="0 0 2500 580">
  <defs>
    <style>
      .cls-1 {
        fill: #fff;
      }

      .cls-2 {
        clip-path: url(#clippath-2);
      }

      .cls-3 {
        clip-path: url(#clippath-1);
      }

      .cls-4 {
        clip-path: url(#clippath);
      }

      .cls-5 {
        fill: none;
      }
    </style>
    <clipPath id="clippath">
      <path class="cls-5" d="M3252.23-2599.92c0,180.08-145.99,326.08-326.08,326.08v-326.08h326.08Zm0,652.15h326.08v-326.08c-180.08,0-326.08,146-326.08,326.08Zm-326.08-326.08v652.15c180.08,0,326.08-146,326.08-326.08s-145.99-326.08-326.08-326.08Zm326.08-326.08c0,180.08,146,326.08,326.08,326.08v-326.08h-326.08Zm760.85,0c-180.08,0-326.08,146-326.08,326.08s146,326.08,326.08,326.08,326.08-146,326.08-326.08-145.99-326.08-326.08-326.08Zm434.77,326.08c0,180.08,146,326.08,326.08,326.08v-652.15c-180.08,0-326.08,146-326.08,326.08Zm326.08,326.08h326.08v-326.08c-180.08,0-326.08,146-326.08,326.08Zm-760.85,1195.61V-426.08c180.08,0,326.08-146,326.08-326.08v-326.08c-180.08,0-326.08,146-326.08,326.08Zm760.85,0v-326.08c-180.08,0-326.08,146-326.08,326.08s146,326.08,326.08,326.08V-100c180.08,0,326.08-146,326.08-326.08s-145.99-326.08-326.08-326.08Zm0-1086.92c-180.08,0-326.08,146-326.08,326.08v326.08c180.08,0,326.08-146,326.08-326.08,180.08,0,326.08-146,326.08-326.08h-326.08Zm0,326.08v326.08h326.08c0-180.08-145.99-326.08-326.08-326.08Zm-760.85-326.08c-180.08,0-326.08,146-326.08,326.08v326.08c180.08,0,326.08-146,326.08-326.08,0,180.08,146,326.08,326.08,326.08v-326.08c0-180.08-145.99-326.08-326.08-326.08Z"/>
    </clipPath>
    <clipPath id="clippath-1">
      <rect class="cls-5" x="2596.19" y="-2603.37" width="2506.75" height="2506.75"/>
    </clipPath>
    <clipPath id="clippath-2">
      <path class="cls-5" d="M3133.83-194.21c0-52.03,42.18-94.21,94.21-94.21v94.21h-94.21Zm-94.21-94.2c0,52.03,42.18,94.21,94.21,94.21v-188.41c-52.03,0-94.21,42.18-94.21,94.21Zm-439.62-94.21v94.21c52.03,0,94.21-42.18,94.21-94.21h-94.21Zm94.21,188.41h94.21v-94.21c-52.03,0-94.21,42.18-94.21,94.21Zm-94.21-94.2V-100c52.03,0,94.21-42.18,94.21-94.21s-42.18-94.21-94.21-94.21Zm94.21-94.21c0,52.03,42.18,94.21,94.21,94.21v-94.21h-94.21Zm219.81,0c-52.03,0-94.21,42.18-94.21,94.21s42.18,94.21,94.21,94.21,94.21-42.18,94.21-94.21-42.18-94.21-94.21-94.21Zm785.04,94.21v94.21c52.03,0,94.21-42.18,94.21-94.21v-94.21c-52.03,0-94.21,42.18-94.21,94.21Zm-125.61,94.2h94.21c0-52.03-42.18-94.21-94.21-94.21v94.21Zm0-188.41c-52.03,0-94.21,42.18-94.21,94.21v94.21c52.03,0,94.21-42.18,94.21-94.21,52.03,0,94.21-42.18,94.21-94.21h-94.21Zm345.42,94.21v-94.21c-52.03,0-94.21,42.18-94.21,94.21s42.18,94.21,94.21,94.21V-100c52.03,0,94.21-42.18,94.21-94.21s-42.18-94.21-94.21-94.21Zm-565.23-94.21c-52.03,0-94.21,42.18-94.21,94.21v94.21c52.03,0,94.21-42.18,94.21-94.21,0,52.03,42.18,94.21,94.21,94.21v-94.21c0-52.03-42.18-94.21-94.21-94.21Z"/>
    </clipPath>
    <image id="image" width="3840" height="2160" xlink:href="E:\GRAPHICS RESOURSES\IMAGES\STREAMING\genial-figura-triangular-geometrica-luz-laser-neon-ideal-fondos.jpg"/>
  </defs>
  <g class="cls-4">
    <g class="cls-3">
      <use transform="translate(236.5 -2603.37) scale(1.27)" xlink:href="#image"/>
    </g>
  </g>
  <g>
    <path class="cls-1" d="M956.67,370.01c0-88.37,71.63-160,160-160v160h-160Z"/>
    <path class="cls-1" d="M956.67,50.01V370.01c-88.36,0-160-71.64-160-160s71.64-160,160-160Z"/>
    <path class="cls-1" d="M210,50c0,88.37-71.63,160-160,160V50H210Z"/>
    <path class="cls-1" d="M370,210v160H210c0-88.37,71.64-160,160-160Z"/>
    <path class="cls-1" d="M210,370c0,88.36-71.64,160-160,160V210c88.36,0,160,71.64,160,160Z"/>
    <path class="cls-1" d="M370,50V210c-88.36,0-160-71.63-160-160h160Z"/>
    <circle class="cls-1" cx="583.33" cy="210.01" r="160"/>
    <path class="cls-1" d="M2076.67,50.01V210.01c0,88.36-71.64,160-160,160V210.01c0-88.36,71.64-160,160-160Z"/>
    <path class="cls-1" d="M1703.33,210c88.37,0,160,71.63,160,160h-160V210Z"/>
    <path class="cls-1" d="M1863.33,50.01c0,88.36-71.64,160-160,160,0,88.36-71.64,160-160,160V210.01c0-88.36,71.64-160,160-160h160Z"/>
    <path class="cls-1" d="M2450,370.01c0,88.36-71.64,160-160,160v-160c-88.36,0-160-71.64-160-160s71.64-160,160-160V210.01c88.36,0,160,71.64,160,160Z"/>
    <path class="cls-1" d="M1490,210.01v160c-88.36,0-160-71.64-160-160,0,88.36-71.64,160-160,160V210.01c0-88.36,71.64-160,160-160s160,71.64,160,160Z"/>
  </g>
  <g class="cls-2">
    <use transform="translate(1239.25 -2150.36) scale(1.16)" xlink:href="#image"/>
  </g>
</svg>