<?xml version="1.0" encoding="UTF-8"?>
<svg id="Capa_1" data-name="Capa 1" xmlns="http://www.w3.org/2000/svg" viewBox="0 0 2500 580">
  <defs>
    <style>
      .cls-1 {
        fill: #4d65b1;
      }
    </style>
  </defs>
  <path class="cls-1" d="M956.67,370.01c0-88.37,71.63-160,160-160v160h-160Z"/>
  <path class="cls-1" d="M956.67,50.01V370.01c-88.36,0-160-71.64-160-160s71.64-160,160-160Z"/>
  <path class="cls-1" d="M210,50c0,88.37-71.63,160-160,160V50H210Z"/>
  <path class="cls-1" d="M370,210v160H210c0-88.37,71.64-160,160-160Z"/>
  <path class="cls-1" d="M210,370c0,88.36-71.64,160-160,160V210c88.36,0,160,71.64,160,160Z"/>
  <path class="cls-1" d="M370,50V210c-88.36,0-160-71.63-160-160h160Z"/>
  <circle class="cls-1" cx="583.33" cy="210.01" r="160"/>
  <path class="cls-1" d="M2076.67,50.01V210.01c0,88.36-71.64,160-160,160V210.01c0-88.36,71.64-160,160-160Z"/>
  <path class="cls-1" d="M1703.33,210c88.37,0,160,71.63,160,160h-160V210Z"/>
  <path class="cls-1" d="M1863.33,50.01c0,88.36-71.64,160-160,160,0,88.36-71.64,160-160,160V210.01c0-88.36,71.64-160,160-160h160Z"/>
  <path class="cls-1" d="M2450,370.01c0,88.36-71.64,160-160,160v-160c-88.36,0-160-71.64-160-160s71.64-160,160-160V210.01c88.36,0,160,71.64,160,160Z"/>
  <path class="cls-1" d="M1490,210.01v160c-88.36,0-160-71.64-160-160,0,88.36-71.64,160-160,160V210.01c0-88.36,71.64-160,160-160s160,71.64,160,160Z"/>
</svg>