<?xml version="1.0" encoding="UTF-8"?>
<svg id="Capa_1" data-name="Capa 1" xmlns="http://www.w3.org/2000/svg" viewBox="0 0 2500 2500">
  <defs>
    <style>
      .cls-1 {
        fill: none;
        stroke: #f6f6f6;
        stroke-miterlimit: 10;
        stroke-width: 2px;
      }

      .cls-2 {
        fill: #b2afb4;
      }

      .cls-3 {
        fill: #3c3c3b;
      }

      .cls-4 {
        fill: #706f6f;
      }
    </style>
  </defs>
  <rect class="cls-2" width="2500" height="2500"/>
  <g>
    <path class="cls-3" d="M1046.54,771.96c0-61.29,49.69-110.98,110.98-110.98v110.98h-110.98Z"/>
    <path class="cls-3" d="M1046.54,550.01v221.96c-61.29,0-110.98-49.69-110.98-110.98s49.69-110.98,110.98-110.98Z"/>
    <path class="cls-3" d="M528.63,550c0,61.29-49.69,110.98-110.98,110.98v-110.98h110.98Z"/>
    <path class="cls-3" d="M639.61,660.98v110.98h-110.98c0-61.29,49.69-110.98,110.98-110.98Z"/>
    <path class="cls-3" d="M528.63,771.96c0,61.29-49.69,110.98-110.98,110.98v-221.96c61.29,0,110.98,49.69,110.98,110.98Z"/>
    <path class="cls-3" d="M639.61,550v110.98c-61.29,0-110.98-49.69-110.98-110.98h110.98Z"/>
    <circle class="cls-3" cx="787.58" cy="660.99" r="110.98"/>
    <path class="cls-3" d="M1823.4,550.01v110.98c0,61.29-49.69,110.98-110.98,110.98v-110.98c0-61.29,49.69-110.98,110.98-110.98Z"/>
    <path class="cls-3" d="M1564.45,660.98c61.29,0,110.98,49.69,110.98,110.98h-110.98v-110.98Z"/>
    <path class="cls-3" d="M1675.43,550.01c0,61.29-49.69,110.98-110.98,110.98,0,61.29-49.69,110.98-110.98,110.98v-110.98c0-61.29,49.69-110.98,110.98-110.98h110.98Z"/>
    <path class="cls-3" d="M2082.36,771.97c0,61.29-49.69,110.98-110.98,110.98v-110.98c-61.29,0-110.98-49.69-110.98-110.98s49.69-110.98,110.98-110.98v110.98c61.29,0,110.98,49.69,110.98,110.98Z"/>
    <path class="cls-3" d="M1416.47,660.99v110.98c-61.29,0-110.98-49.69-110.98-110.98,0,61.29-49.69,110.98-110.98,110.98v-110.98c0-61.29,49.69-110.98,110.98-110.98s110.98,49.69,110.98,110.98Z"/>
  </g>
  <g>
    <path class="cls-4" d="M1046.54,1471.96c0-61.29,49.69-110.98,110.98-110.98v110.98h-110.98Z"/>
    <path class="cls-4" d="M1046.54,1250v221.96c-61.29,0-110.98-49.69-110.98-110.98s49.69-110.98,110.98-110.98Z"/>
    <path class="cls-4" d="M528.63,1250c0,61.29-49.69,110.98-110.98,110.98v-110.98h110.98Z"/>
    <path class="cls-4" d="M639.61,1360.98v110.98h-110.98c0-61.29,49.69-110.98,110.98-110.98Z"/>
    <path class="cls-4" d="M528.63,1471.96c0,61.29-49.69,110.98-110.98,110.98v-221.96c61.29,0,110.98,49.69,110.98,110.98Z"/>
    <path class="cls-4" d="M639.61,1250v110.98c-61.29,0-110.98-49.69-110.98-110.98h110.98Z"/>
    <circle class="cls-4" cx="787.58" cy="1360.98" r="110.98"/>
    <path class="cls-4" d="M1823.4,1250v110.98c0,61.29-49.69,110.98-110.98,110.98v-110.98c0-61.29,49.69-110.98,110.98-110.98Z"/>
    <path class="cls-4" d="M1564.45,1360.98c61.29,0,110.98,49.69,110.98,110.98h-110.98v-110.98Z"/>
    <path class="cls-4" d="M1675.43,1250c0,61.29-49.69,110.98-110.98,110.98,0,61.29-49.69,110.98-110.98,110.98v-110.98c0-61.29,49.69-110.98,110.98-110.98h110.98Z"/>
    <path class="cls-4" d="M2082.36,1471.96c0,61.29-49.69,110.98-110.98,110.98v-110.98c-61.29,0-110.98-49.69-110.98-110.98s49.69-110.98,110.98-110.98v110.98c61.29,0,110.98,49.69,110.98,110.98Z"/>
    <path class="cls-4" d="M1416.47,1360.98v110.98c-61.29,0-110.98-49.69-110.98-110.98,0,61.29-49.69,110.98-110.98,110.98v-110.98c0-61.29,49.69-110.98,110.98-110.98s110.98,49.69,110.98,110.98Z"/>
  </g>
  <g>
    <path class="cls-4" d="M1176.67,1912.59c0-22.09,17.91-40,40-40v40h-40Z"/>
    <path class="cls-4" d="M1176.67,1832.59v80c-22.09,0-40-17.91-40-40s17.91-40,40-40Z"/>
    <path class="cls-4" d="M990,1832.59c0,22.09-17.91,40-40,40v-40h40Z"/>
    <path class="cls-4" d="M1030,1872.59v40h-40c0-22.09,17.91-40,40-40Z"/>
    <path class="cls-4" d="M990,1912.59c0,22.09-17.91,40-40,40v-80c22.09,0,40,17.91,40,40Z"/>
    <path class="cls-4" d="M1030,1832.59v40c-22.09,0-40-17.91-40-40h40Z"/>
    <circle class="cls-4" cx="1083.33" cy="1872.59" r="40"/>
    <path class="cls-4" d="M1456.67,1832.59v40c0,22.09-17.91,40-40,40v-40c0-22.09,17.91-40,40-40Z"/>
    <path class="cls-4" d="M1363.33,1872.59c22.09,0,40,17.91,40,40h-40v-40Z"/>
    <path class="cls-4" d="M1403.33,1832.59c0,22.09-17.91,40-40,40,0,22.09-17.91,40-40,40v-40c0-22.09,17.91-40,40-40h40Z"/>
    <path class="cls-4" d="M1550,1912.59c0,22.09-17.91,40-40,40v-40c-22.09,0-40-17.91-40-40s17.91-40,40-40v40c22.09,0,40,17.91,40,40Z"/>
    <path class="cls-4" d="M1310,1872.59v40c-22.09,0-40-17.91-40-40,0,22.09-17.91,40-40,40v-40c0-22.09,17.91-40,40-40s40,17.91,40,40Z"/>
  </g>
  <circle class="cls-1" cx="787.58" cy="660.98" r="110.98"/>
  <circle class="cls-1" cx="417.64" cy="771.96" r="110.98"/>
  <circle class="cls-1" cx="639.61" cy="771.96" r="110.98"/>
  <circle class="cls-1" cx="417.64" cy="550" r="110.98"/>
  <circle class="cls-1" cx="639.61" cy="550" r="110.98"/>
  <circle class="cls-1" cx="1157.52" cy="771.96" r="110.98"/>
  <circle class="cls-1" cx="1416.47" cy="660.98" r="110.98"/>
  <circle class="cls-1" cx="1194.51" cy="660.98" r="110.98"/>
  <circle class="cls-1" cx="1453.46" cy="660.98" r="110.98"/>
  <circle class="cls-1" cx="1564.45" cy="660.98" r="110.98"/>
  <circle class="cls-1" cx="1564.44" cy="550" r="110.98"/>
  <circle class="cls-1" cx="1712.42" cy="660.98" r="110.98"/>
  <circle class="cls-1" cx="1823.4" cy="660.98" r="110.98"/>
  <circle class="cls-1" cx="1971.37" cy="660.98" r="110.98"/>
  <circle class="cls-1" cx="1971.37" cy="771.96" r="110.98"/>
  <circle class="cls-1" cx="1564.44" cy="771.96" r="110.98"/>
  <circle class="cls-1" cx="1046.54" cy="660.98" r="110.98"/>
  <circle class="cls-1" cx="1305.49" cy="660.98" r="110.98"/>
  <line class="cls-1" x1="306.66" y1="439.02" x2="2082.36" y2="439.02"/>
  <line class="cls-1" x1="306.66" y1="550" x2="2082.36" y2="550"/>
  <line class="cls-1" x1="306.66" y1="660.98" x2="2082.36" y2="660.98"/>
  <line class="cls-1" x1="306.66" y1="771.96" x2="2082.36" y2="771.96"/>
  <line class="cls-1" x1="306.66" y1="882.94" x2="2082.36" y2="882.94"/>
</svg>