<?xml version="1.0" encoding="UTF-8"?>
<svg id="Capa_1" data-name="Capa 1" xmlns="http://www.w3.org/2000/svg" viewBox="0 0 2500 2500">
  <defs>
    <style>
      .cls-1 {
        fill: none;
        stroke: #f6f6f6;
        stroke-miterlimit: 10;
        stroke-width: 2px;
      }

      .cls-2 {
        fill: #b2afb4;
      }

      .cls-3 {
        fill: #3c3c3b;
      }

      .cls-4 {
        fill: #706f6f;
      }
    </style>
  </defs>
  <rect class="cls-2" width="2500" height="2500"/>
  <path class="cls-3" d="M508.95,550c0,50.42-40.88,91.3-91.3,91.3v-91.3h91.3Zm0,182.61h91.3v-91.3c-50.42,0-91.3,40.88-91.3,91.3Zm-91.3-91.3v182.61c50.42,0,91.3-40.88,91.3-91.3s-40.88-91.3-91.3-91.3Zm91.3-91.3c0,50.42,40.88,91.3,91.3,91.3v-91.3h-91.3Zm213.04,0c-50.42,0-91.3,40.88-91.3,91.3s40.88,91.3,91.3,91.3,91.3-40.88,91.3-91.3-40.88-91.3-91.3-91.3Zm121.74,91.3c0,50.42,40.88,91.3,91.3,91.3v-182.61c-50.42,0-91.3,40.88-91.3,91.3Zm91.3,91.3h91.3v-91.3c-50.42,0-91.3,40.88-91.3,91.3Zm-213.04,334.78v91.3c50.42,0,91.3-40.88,91.3-91.3v-91.3c-50.42,0-91.3,40.88-91.3,91.3Zm213.04,0v-91.3c-50.42,0-91.3,40.88-91.3,91.3s40.88,91.3,91.3,91.3v91.3c50.42,0,91.3-40.88,91.3-91.3s-40.88-91.3-91.3-91.3Zm0-304.35c-50.42,0-91.3,40.88-91.3,91.3v91.3c50.42,0,91.3-40.88,91.3-91.3,50.42,0,91.3-40.88,91.3-91.3h-91.3Zm0,91.3v91.3h91.3c0-50.42-40.88-91.3-91.3-91.3Zm-213.04-91.3c-50.42,0-91.3,40.88-91.3,91.3v91.3c50.42,0,91.3-40.88,91.3-91.3,0,50.42,40.88,91.3,91.3,91.3v-91.3c0-50.42-40.88-91.3-91.3-91.3Z"/>
  <path class="cls-4" d="M1564.96,550c0,50.42-40.88,91.3-91.3,91.3v-91.3h91.3Zm0,182.61h91.3v-91.3c-50.42,0-91.3,40.88-91.3,91.3Zm-91.3-91.3v182.61c50.42,0,91.3-40.88,91.3-91.3s-40.88-91.3-91.3-91.3Zm91.3-91.3c0,50.42,40.88,91.3,91.3,91.3v-91.3h-91.3Zm213.04,0c-50.42,0-91.3,40.88-91.3,91.3s40.88,91.3,91.3,91.3,91.3-40.88,91.3-91.3-40.88-91.3-91.3-91.3Zm121.74,91.3c0,50.42,40.88,91.3,91.3,91.3v-182.61c-50.42,0-91.3,40.88-91.3,91.3Zm91.3,91.3h91.3v-91.3c-50.42,0-91.3,40.88-91.3,91.3Zm-213.04,334.78v91.3c50.42,0,91.3-40.88,91.3-91.3v-91.3c-50.42,0-91.3,40.88-91.3,91.3Zm213.04,0v-91.3c-50.42,0-91.3,40.88-91.3,91.3s40.88,91.3,91.3,91.3v91.3c50.42,0,91.3-40.88,91.3-91.3s-40.88-91.3-91.3-91.3Zm0-304.35c-50.42,0-91.3,40.88-91.3,91.3v91.3c50.42,0,91.3-40.88,91.3-91.3,50.42,0,91.3-40.88,91.3-91.3h-91.3Zm0,91.3v91.3h91.3c0-50.42-40.88-91.3-91.3-91.3Zm-213.04-91.3c-50.42,0-91.3,40.88-91.3,91.3v91.3c50.42,0,91.3-40.88,91.3-91.3,0,50.42,40.88,91.3,91.3,91.3v-91.3c0-50.42-40.88-91.3-91.3-91.3Z"/>
  <path class="cls-4" d="M1811.05,1582.94c0,26.44-21.44,47.88-47.88,47.88v-47.88h47.88Zm0,95.76h47.88v-47.88c-26.44,0-47.88,21.44-47.88,47.88Zm-47.88-47.88v95.76c26.44,0,47.88-21.44,47.88-47.88s-21.44-47.88-47.88-47.88Zm47.88-47.88c0,26.44,21.44,47.88,47.88,47.88v-47.88h-47.88Zm111.72,0c-26.44,0-47.88,21.44-47.88,47.88s21.44,47.88,47.88,47.88,47.88-21.44,47.88-47.88-21.44-47.88-47.88-47.88Zm63.84,47.88c0,26.44,21.44,47.88,47.88,47.88v-95.76c-26.44,0-47.88,21.44-47.88,47.88Zm47.88,47.88h47.88v-47.88c-26.44,0-47.88,21.44-47.88,47.88Zm-111.72,175.55v47.88c26.44,0,47.88-21.44,47.88-47.88v-47.88c-26.44,0-47.88,21.44-47.88,47.88Zm111.72,0v-47.88c-26.44,0-47.88,21.44-47.88,47.88s21.44,47.88,47.88,47.88v47.88c26.44,0,47.88-21.44,47.88-47.88s-21.44-47.88-47.88-47.88Zm0-159.59c-26.44,0-47.88,21.44-47.88,47.88v47.88c26.44,0,47.88-21.44,47.88-47.88,26.44,0,47.88-21.44,47.88-47.88h-47.88Zm0,47.88v47.88h47.88c0-26.44-21.44-47.88-47.88-47.88Zm-111.72-47.88c-26.44,0-47.88,21.44-47.88,47.88v47.88c26.44,0,47.88-21.44,47.88-47.88,0,26.44,21.44,47.88,47.88,47.88v-47.88c0-26.44-21.44-47.88-47.88-47.88Z"/>
  <path class="cls-1" d="M508.95,550c0,50.43-40.88,91.3-91.3,91.3v-91.3h91.3Z"/>
  <path class="cls-1" d="M508.95,732.61c0,50.43-40.88,91.3-91.3,91.3v-91.3h91.3Z"/>
  <path class="cls-1" d="M600.25,641.3v91.3h-91.3c0-50.43,40.88-91.3,91.3-91.3Z"/>
  <path class="cls-1" d="M417.64,641.3v91.3s91.3,0,91.3,0c0-50.43-40.88-91.3-91.3-91.3Z"/>
  <path class="cls-1" d="M600.25,550v91.3c-50.42,0-91.3-40.88-91.3-91.3h91.3Z"/>
  <path class="cls-1" d="M935.04,732.61c0-50.43,40.88-91.3,91.3-91.3v91.3s-91.3,0-91.3,0Z"/>
  <path class="cls-1" d="M843.73,641.3h91.3s0-91.3,0-91.3c-50.43,0-91.3,40.88-91.3,91.3Z"/>
  <path class="cls-1" d="M630.69,641.3c0-50.43,40.88-91.3,91.3-91.3v91.3h-91.3Z"/>
  <path class="cls-1" d="M721.99,732.61v-91.3h91.3c0,50.43-40.88,91.3-91.3,91.3Z"/>
  <path class="cls-1" d="M721.99,732.61v-91.3s-91.3,0-91.3,0c0,50.43,40.88,91.3,91.3,91.3Z"/>
  <path class="cls-1" d="M721.99,641.3v-91.3c50.42,0,91.3,40.88,91.3,91.3h-91.3Z"/>
  <path class="cls-1" d="M935.04,732.61c-50.43,0-91.3-40.88-91.3-91.3h91.3v91.3Z"/>
  <rect class="cls-1" x="843.73" y="550" width="182.61" height="182.61"/>
  <path class="cls-1" d="M721.99,1067.39h91.3s0-91.3,0-91.3c-50.43,0-91.3,40.88-91.3,91.3Z"/>
  <path class="cls-1" d="M813.3,1067.39c0,50.43-40.88,91.3-91.3,91.3v-91.3h91.3Z"/>
  <path class="cls-1" d="M935.04,1067.39c50.43,0,91.3,40.88,91.3,91.3h-91.3v-91.3Z"/>
  <path class="cls-1" d="M843.73,1067.39h91.3s0-91.3,0-91.3c-50.43,0-91.3,40.88-91.3,91.3Z"/>
  <path class="cls-1" d="M935.04,1158.7c-50.43,0-91.3-40.88-91.3-91.3h91.3v91.3Z"/>
  <rect class="cls-1" x="843.73" y="976.09" width="182.61" height="182.61"/>
  <rect class="cls-1" x="417.64" y="641.3" width="182.61" height="182.61"/>
  <rect class="cls-1" x="630.69" y="550" width="182.61" height="182.61"/>
  <rect class="cls-1" x="630.69" y="976.09" width="182.61" height="182.61"/>
  <rect class="cls-1" x="843.73" y="1067.39" width="182.61" height="182.61"/>
  <path class="cls-1" d="M935.04,854.35c50.43,0,91.3,40.88,91.3,91.3h-91.3v-91.3Z"/>
  <path class="cls-1" d="M843.73,854.35h91.3s0-91.3,0-91.3c-50.43,0-91.3,40.88-91.3,91.3Z"/>
  <path class="cls-1" d="M935.04,854.35c0,50.43-40.88,91.3-91.3,91.3v-91.3h91.3Z"/>
  <path class="cls-1" d="M1026.34,1158.7c0,50.43-40.88,91.3-91.3,91.3v-91.3h91.3Z"/>
  <path class="cls-1" d="M1026.34,763.04c0,50.43-40.88,91.3-91.3,91.3v-91.3h91.3Z"/>
  <rect class="cls-1" x="843.73" y="763.04" width="182.61" height="182.61"/>
  <path class="cls-1" d="M721.99,763.04c50.43,0,91.3,40.88,91.3,91.3h-91.3v-91.3Z"/>
  <path class="cls-1" d="M630.69,854.35h91.3s0-91.3,0-91.3c-50.43,0-91.3,40.88-91.3,91.3Z"/>
  <path class="cls-1" d="M721.99,854.35c0,50.43-40.88,91.3-91.3,91.3v-91.3h91.3Z"/>
  <path class="cls-1" d="M813.3,854.35v91.3c-50.42,0-91.3-40.88-91.3-91.3h91.3Z"/>
  <rect class="cls-1" x="630.69" y="763.04" width="182.61" height="182.61"/>
</svg>